<svg xmlns="http://www.w3.org/2000/svg" xmlns:xlink="http://www.w3.org/1999/xlink" width="8000" zoomAndPan="magnify" viewBox="0 0 6000 2343.749891" height="3125" preserveAspectRatio="xMidYMid meet" version="1.0"><defs><g/></defs><g fill="#ffffff" fill-opacity="1"><g transform="translate(-74.904039, 1773.587692)"><g><path d="M 369.875 -495.75 L 369.875 -186.875 L 908.875 -186.875 L 908.875 0 L 146.71875 0 L 146.71875 -1128.9375 L 896.515625 -1128.9375 L 896.515625 -942.0625 L 369.875 -942.0625 L 369.875 -677.96875 L 830.109375 -677.96875 L 830.109375 -495.75 Z M 369.875 -495.75 "/></g></g><g transform="translate(895.741831, 1773.587692)"><g><path d="M 240.15625 0 L 14.671875 0 L 257.90625 -441.6875 L 27.796875 -851.71875 L 256.375 -851.71875 L 403.859375 -571.40625 L 421.625 -571.40625 L 569.875 -851.71875 L 791.5 -851.71875 L 568.328125 -441.6875 L 804.625 0 L 576.828125 0 L 416.21875 -311.1875 L 398.453125 -311.1875 Z M 240.15625 0 "/></g></g><g transform="translate(1715.037994, 1773.587692)"><g><path d="M 905.015625 -1128.9375 L 905.015625 -941.28125 L 579.140625 -941.28125 L 579.140625 0 L 356.75 0 L 356.75 -941.28125 L 30.890625 -941.28125 L 30.890625 -1128.9375 Z M 905.015625 -1128.9375 "/></g></g><g transform="translate(2650.935214, 1773.587692)"><g><path d="M 122.78125 0 L 122.78125 -851.71875 L 330.5 -851.71875 L 330.5 -725.078125 L 346.71875 -721.984375 C 367.3125 -769.347656 394.335938 -804.097656 427.796875 -826.234375 C 461.253906 -848.367188 501.921875 -859.4375 549.796875 -859.4375 C 598.191406 -859.4375 635 -851.195312 660.21875 -834.71875 L 623.9375 -650.171875 L 607.71875 -647.078125 C 593.820312 -652.742188 580.4375 -656.863281 567.5625 -659.4375 C 554.6875 -662.007812 538.984375 -663.296875 520.453125 -663.296875 C 460.742188 -663.296875 415.1875 -642.316406 383.78125 -600.359375 C 352.375 -558.410156 336.671875 -491.109375 336.671875 -398.453125 L 336.671875 0 Z M 122.78125 0 "/></g></g><g transform="translate(3318.881655, 1773.587692)"><g><path d="M 332.046875 16.21875 C 277.472656 16.21875 230.109375 6.179688 189.953125 -13.890625 C 149.804688 -33.972656 118.921875 -63.445312 97.296875 -102.3125 C 75.671875 -141.175781 64.859375 -187.894531 64.859375 -242.46875 C 64.859375 -292.914062 75.671875 -335.253906 97.296875 -369.484375 C 118.921875 -403.722656 152.382812 -431.78125 197.6875 -453.65625 C 242.988281 -475.539062 302.1875 -492.40625 375.28125 -504.25 C 426.25 -512.46875 464.988281 -521.46875 491.5 -531.25 C 518.007812 -541.03125 535.894531 -552.097656 545.15625 -564.453125 C 554.425781 -576.804688 559.0625 -592.507812 559.0625 -611.5625 C 559.0625 -638.84375 549.535156 -659.691406 530.484375 -674.109375 C 511.441406 -688.523438 479.785156 -695.734375 435.515625 -695.734375 C 388.148438 -695.734375 343.101562 -685.175781 300.375 -664.0625 C 257.65625 -642.957031 220.59375 -615.160156 189.1875 -580.671875 L 173.75 -580.671875 L 84.171875 -715.8125 C 127.410156 -763.6875 180.175781 -801.007812 242.46875 -827.78125 C 304.757812 -854.550781 372.710938 -867.9375 446.328125 -867.9375 C 559.066406 -867.9375 640.660156 -843.992188 691.109375 -796.109375 C 741.554688 -748.234375 766.78125 -680.28125 766.78125 -592.25 L 766.78125 -222.390625 C 766.78125 -184.296875 783.515625 -165.25 816.984375 -165.25 C 829.847656 -165.25 842.457031 -167.566406 854.8125 -172.203125 L 865.625 -169.109375 L 881.078125 -20.078125 C 869.234375 -12.359375 852.757812 -6.050781 831.65625 -1.15625 C 810.550781 3.726562 787.382812 6.171875 762.15625 6.171875 C 711.1875 6.171875 671.414062 -3.609375 642.84375 -23.171875 C 614.28125 -42.734375 593.820312 -73.363281 581.46875 -115.0625 L 565.25 -116.59375 C 523.550781 -28.050781 445.816406 16.21875 332.046875 16.21875 Z M 400 -143.625 C 449.414062 -143.625 488.921875 -160.222656 518.515625 -193.421875 C 548.117188 -226.628906 562.921875 -272.835938 562.921875 -332.046875 L 562.921875 -418.53125 L 548.25 -421.625 C 535.382812 -411.320312 518.523438 -402.695312 497.671875 -395.75 C 476.828125 -388.800781 446.84375 -381.976562 407.71875 -375.28125 C 361.382812 -367.5625 328.050781 -354.304688 307.71875 -335.515625 C 287.382812 -316.722656 277.21875 -290.082031 277.21875 -255.59375 C 277.21875 -219.039062 288.023438 -191.238281 309.640625 -172.1875 C 331.265625 -153.144531 361.382812 -143.625 400 -143.625 Z M 400 -143.625 "/></g></g><g transform="translate(4216.941433, 1773.587692)"><g><path d="M 496.515625 16.21875 C 414.148438 16.21875 341.304688 -0.894531 277.984375 -35.125 C 214.671875 -69.363281 165.253906 -119.6875 129.734375 -186.09375 C 94.210938 -252.507812 76.453125 -332.304688 76.453125 -425.484375 C 76.453125 -519.160156 94.210938 -599.203125 129.734375 -665.609375 C 165.253906 -732.023438 214.414062 -782.347656 277.21875 -816.578125 C 340.019531 -850.816406 411.832031 -867.9375 492.65625 -867.9375 C 672.320312 -867.9375 787.378906 -802.8125 837.828125 -672.5625 L 691.109375 -567.546875 L 674.890625 -567.546875 C 657.390625 -607.703125 634.609375 -637.5625 606.546875 -657.125 C 578.492188 -676.6875 540.53125 -686.46875 492.65625 -686.46875 C 430.882812 -686.46875 382.75 -665.101562 348.25 -622.375 C 313.757812 -579.644531 296.515625 -514.015625 296.515625 -425.484375 C 296.515625 -337.960938 314.019531 -272.707031 349.03125 -229.71875 C 384.039062 -186.738281 433.203125 -165.25 496.515625 -165.25 C 542.847656 -165.25 582.101562 -177.734375 614.28125 -202.703125 C 646.457031 -227.671875 669.492188 -263.578125 683.390625 -310.421875 L 699.609375 -311.96875 L 851.734375 -228.5625 C 830.109375 -156.5 790.082031 -97.6875 731.65625 -52.125 C 673.226562 -6.5625 594.847656 16.21875 496.515625 16.21875 Z M 496.515625 16.21875 "/></g></g><g transform="translate(5094.924212, 1773.587692)"><g><path d="M 122.78125 0 L 122.78125 -1193.796875 L 336.671875 -1193.796875 L 336.671875 -531.25 L 357.53125 -531.25 L 603.859375 -851.71875 L 820.84375 -851.71875 L 820.84375 -833.953125 L 531.265625 -460.234375 L 853.28125 -19.3125 L 853.28125 0 L 627.796875 0 L 357.53125 -359.0625 L 336.671875 -359.0625 L 336.671875 0 Z M 122.78125 0 "/></g></g></g></svg>