<svg xmlns="http://www.w3.org/2000/svg" xmlns:xlink="http://www.w3.org/1999/xlink" width="8000" zoomAndPan="magnify" viewBox="0 0 6000 2250.000011" height="3000" preserveAspectRatio="xMidYMid meet" version="1.0"><defs><g/></defs><g fill="#ffffff" fill-opacity="1"><g transform="translate(66.180872, 1693.824869)"><g><path d="M 364.046875 -487.9375 L 364.046875 -183.921875 L 894.53125 -183.921875 L 894.53125 0 L 144.40625 0 L 144.40625 -1111.140625 L 882.375 -1111.140625 L 882.375 -927.21875 L 364.046875 -927.21875 L 364.046875 -667.28125 L 817.015625 -667.28125 L 817.015625 -487.9375 Z M 364.046875 -487.9375 "/></g></g><g transform="translate(1021.534023, 1693.824869)"><g><path d="M 236.375 0 L 14.4375 0 L 253.84375 -434.734375 L 27.359375 -838.296875 L 252.328125 -838.296875 L 397.5 -562.40625 L 414.96875 -562.40625 L 560.890625 -838.296875 L 779.015625 -838.296875 L 559.359375 -434.734375 L 791.9375 0 L 567.71875 0 L 409.65625 -306.296875 L 392.171875 -306.296875 Z M 236.375 0 "/></g></g><g transform="translate(1827.922013, 1693.824869)"><g><path d="M 890.734375 -1111.140625 L 890.734375 -926.453125 L 570 -926.453125 L 570 0 L 351.125 0 L 351.125 -926.453125 L 30.40625 -926.453125 L 30.40625 -1111.140625 Z M 890.734375 -1111.140625 "/></g></g><g transform="translate(2749.073986, 1693.824869)"><g><path d="M 120.84375 0 L 120.84375 -838.296875 L 325.296875 -838.296875 L 325.296875 -713.640625 L 341.25 -710.609375 C 361.519531 -757.222656 388.117188 -791.421875 421.046875 -813.203125 C 453.984375 -834.992188 494.007812 -845.890625 541.125 -845.890625 C 588.75 -845.890625 624.976562 -837.785156 649.8125 -821.578125 L 614.078125 -639.921875 L 598.125 -636.890625 C 584.445312 -642.460938 571.273438 -646.515625 558.609375 -649.046875 C 545.941406 -651.578125 530.484375 -652.84375 512.234375 -652.84375 C 453.472656 -652.84375 408.640625 -632.195312 377.734375 -590.90625 C 346.828125 -549.613281 331.375 -483.367188 331.375 -392.171875 L 331.375 0 Z M 120.84375 0 "/></g></g><g transform="translate(3406.496799, 1693.824869)"><g><path d="M 326.8125 15.953125 C 273.101562 15.953125 226.488281 6.070312 186.96875 -13.6875 C 147.445312 -33.445312 117.046875 -62.453125 95.765625 -100.703125 C 74.484375 -138.953125 63.84375 -184.929688 63.84375 -238.640625 C 63.84375 -288.296875 74.484375 -329.972656 95.765625 -363.671875 C 117.046875 -397.367188 149.976562 -424.984375 194.5625 -446.515625 C 239.15625 -468.046875 297.425781 -484.640625 369.375 -496.296875 C 419.53125 -504.398438 457.648438 -513.265625 483.734375 -522.890625 C 509.828125 -532.515625 527.4375 -543.40625 536.5625 -555.5625 C 545.6875 -567.71875 550.25 -583.171875 550.25 -601.921875 C 550.25 -628.773438 540.875 -649.296875 522.125 -663.484375 C 503.382812 -677.671875 472.226562 -684.765625 428.65625 -684.765625 C 382.039062 -684.765625 337.703125 -674.375 295.640625 -653.59375 C 253.585938 -632.820312 217.109375 -605.460938 186.203125 -571.515625 L 171 -571.515625 L 82.84375 -704.53125 C 125.40625 -751.644531 177.335938 -788.375 238.640625 -814.71875 C 299.953125 -841.070312 366.835938 -854.25 439.296875 -854.25 C 550.242188 -854.25 630.546875 -830.6875 680.203125 -783.5625 C 729.859375 -736.445312 754.6875 -669.566406 754.6875 -582.921875 L 754.6875 -218.890625 C 754.6875 -181.390625 771.15625 -162.640625 804.09375 -162.640625 C 816.757812 -162.640625 829.171875 -164.921875 841.328125 -169.484375 L 851.96875 -166.453125 L 867.171875 -19.765625 C 855.515625 -12.160156 839.300781 -5.953125 818.53125 -1.140625 C 797.757812 3.671875 774.957031 6.078125 750.125 6.078125 C 699.96875 6.078125 660.828125 -3.546875 632.703125 -22.796875 C 604.585938 -42.054688 584.445312 -72.207031 572.28125 -113.25 L 556.328125 -114.765625 C 515.296875 -27.617188 438.789062 15.953125 326.8125 15.953125 Z M 393.6875 -141.359375 C 442.332031 -141.359375 481.21875 -157.695312 510.34375 -190.375 C 539.476562 -223.0625 554.046875 -268.539062 554.046875 -326.8125 L 554.046875 -411.9375 L 539.609375 -414.96875 C 526.929688 -404.832031 510.335938 -396.34375 489.828125 -389.5 C 469.316406 -382.664062 439.804688 -375.957031 401.296875 -369.375 C 355.691406 -361.769531 322.878906 -348.71875 302.859375 -330.21875 C 282.847656 -311.726562 272.84375 -285.507812 272.84375 -251.5625 C 272.84375 -215.59375 283.484375 -188.234375 304.765625 -169.484375 C 326.046875 -150.734375 355.6875 -141.359375 393.6875 -141.359375 Z M 393.6875 -141.359375 "/></g></g><g transform="translate(4290.407467, 1693.824869)"><g><path d="M 488.703125 15.953125 C 407.628906 15.953125 335.929688 -0.890625 273.609375 -34.578125 C 211.285156 -68.273438 162.644531 -117.800781 127.6875 -183.15625 C 92.726562 -248.519531 75.25 -327.0625 75.25 -418.78125 C 75.25 -510.976562 92.726562 -589.757812 127.6875 -655.125 C 162.644531 -720.488281 211.03125 -770.015625 272.84375 -803.703125 C 334.664062 -837.398438 405.347656 -854.25 484.890625 -854.25 C 661.710938 -854.25 774.953125 -790.15625 824.609375 -661.96875 L 680.203125 -558.609375 L 664.25 -558.609375 C 647.019531 -598.128906 624.597656 -627.515625 596.984375 -646.765625 C 569.367188 -666.015625 532.003906 -675.640625 484.890625 -675.640625 C 424.085938 -675.640625 376.710938 -654.613281 342.765625 -612.5625 C 308.816406 -570.507812 291.84375 -505.914062 291.84375 -418.78125 C 291.84375 -332.632812 309.070312 -268.40625 343.53125 -226.09375 C 377.988281 -183.789062 426.378906 -162.640625 488.703125 -162.640625 C 534.285156 -162.640625 572.910156 -174.925781 604.578125 -199.5 C 636.242188 -224.082031 658.921875 -259.425781 672.609375 -305.53125 L 688.5625 -307.046875 L 838.296875 -224.96875 C 817.015625 -154.03125 777.617188 -96.140625 720.109375 -51.296875 C 662.597656 -6.460938 585.460938 15.953125 488.703125 15.953125 Z M 488.703125 15.953125 "/></g></g><g transform="translate(5154.557453, 1693.824869)"><g><path d="M 120.84375 0 L 120.84375 -1174.984375 L 331.375 -1174.984375 L 331.375 -522.875 L 351.890625 -522.875 L 594.328125 -838.296875 L 807.890625 -838.296875 L 807.890625 -820.8125 L 522.875 -452.96875 L 839.8125 -19 L 839.8125 0 L 617.890625 0 L 351.890625 -353.40625 L 331.375 -353.40625 L 331.375 0 Z M 120.84375 0 "/></g></g></g></svg>